# This file uses centimeters as units for non-parametric coordinates.

g default
v -0.572920 0.071046 0.728862
v -1.349582 0.244432 0.428062
v -0.091008 -0.231548 0.210388
v -1.178852 -0.285186 0.917406
v -0.761332 -0.229628 -0.146159
v -1.823864 1.949780 0.482578
v -1.168710 -0.035766 0.134804
v 0.124844 -0.210560 0.670144
v -1.149174 -0.080480 0.854060
v -1.230832 -0.315920 0.482332
v -1.815476 1.511920 0.875478
v 0.949962 0.474278 0.279756
v -1.012762 -0.052408 0.353398
v 0.232906 0.800680 1.076856
v 0.208664 -0.311166 -0.250446
v -1.113078 2.067240 0.535556
v -0.329074 0.849674 1.105264
v -1.682888 1.204840 0.066083
v -1.681598 1.864460 0.083297
v 0.871132 0.391918 0.519678
v -0.950236 1.571920 -0.036087
v -1.017136 0.999036 -0.438804
v -0.872640 -0.074228 -0.225628
v 1.215472 0.302334 0.323258
v -1.080144 1.884840 -0.019809
v 0.346776 0.563514 1.065142
v -0.265478 2.247920 -0.296340
v -1.045974 0.008522 0.633152
v 0.231730 1.383020 -0.288020
v -1.009260 0.255586 0.677394
v -1.045706 2.079100 0.240864
v 0.579654 -0.065262 -0.153261
v -0.208368 2.599860 -0.590492
v -1.482652 2.609680 -1.073412
v -1.380184 1.456900 1.059020
v -0.371272 2.222440 -0.118479
v -0.825420 -0.322892 -0.037602
v -0.730072 -0.043842 0.791772
v -0.127214 1.505900 -0.177204
v 0.216548 -0.274584 -0.451274
v -0.652648 0.068482 -0.210208
v 0.009882 1.365780 0.782044
v -1.510044 1.633380 1.049870
v 0.407712 -0.303634 -0.029950
v 0.047540 1.632700 0.325626
v -1.562550 2.057080 0.002159
v -1.442402 1.995720 -0.805832
v -1.318690 1.188280 0.755934
v -1.563922 0.460010 -0.071940
v -1.769282 0.775432 0.109521
v -1.589842 1.922040 0.835922
v -1.342844 2.189500 -1.123558
v 0.672268 0.752672 0.833812
v -0.389974 0.657646 1.145800
v -0.779112 -0.298028 0.844160
v -1.494982 2.101620 0.049742
v -0.691276 1.279420 -0.332390
v 0.868156 0.917948 0.442954
v -0.410204 -0.076294 1.043406
v -0.712974 -0.295482 -0.621584
v -0.152741 -0.065780 -0.599322
v -1.237188 2.096540 0.077045
v -1.157812 0.200944 -0.034685
v 0.772346 0.347288 -0.235102
v -1.737888 1.451120 -0.034681
v -1.770930 0.804658 0.448300
v 0.446472 0.100838 -0.521134
v -1.457196 -0.289972 0.129060
v -0.379128 2.741580 -0.390996
v -1.274620 0.503884 -0.343538
v -1.743356 1.207800 0.367238
v -0.569742 0.864604 -0.511882
v -1.078584 -0.048004 -0.128708
v -1.002254 -0.324394 -0.255422
v -1.306374 2.049840 0.702430
v 0.833106 0.801692 -0.175439
v -1.215672 2.425520 -1.218332
v -1.499380 1.113440 0.729648
v 0.381734 -0.143514 -0.433610
v -0.607134 1.381460 0.589980
v -0.603634 1.463200 -0.084826
v -1.335004 -0.324438 -0.139095
v 0.678088 1.305460 0.073350
v -1.457132 1.299820 -0.142263
v 0.200738 1.606480 0.068197
v 0.952366 -0.146618 0.343210
v 0.649160 0.821964 -0.368690
v -0.694090 0.702272 -0.491556
v -0.362908 -0.304044 0.902012
v 0.819100 1.083760 0.043727
v 0.836192 -0.034654 0.640996
v -0.030001 0.040598 1.083298
v -0.962912 1.885400 0.068407
v -1.454676 0.642894 -0.312248
v -1.893370 1.483300 0.385330
v 0.050192 1.032340 0.888774
v -1.494450 2.220620 -0.639058
v -0.350006 -0.001550 0.940122
v -1.508736 1.290440 1.014180
v -1.418702 0.485210 0.732194
v -0.531610 -0.245148 0.314106
v -1.198546 1.447460 -0.173589
v 1.026648 0.227716 -0.069748
v -1.597694 0.412746 0.291066
v -0.557210 1.494360 0.368884
v -0.855202 1.578760 0.259966
v 1.139598 0.077388 0.449786
v -0.190041 1.561200 0.528668
v 1.057692 0.066214 -0.034486
v -1.264456 1.823520 -0.139746
v 0.611928 -0.184430 0.565682
v -1.310006 0.665960 0.877416
v 0.927294 0.406374 0.070127
v 0.679252 -0.287366 0.234128
v -0.641856 -0.326526 -0.441582
v -0.989938 0.892686 0.894860
v -0.531500 -0.046270 -0.517556
v 0.293104 -0.276944 0.872084
v -0.607918 0.525352 -0.671352
v -0.448670 -0.256548 1.082116
v -1.013676 0.356732 -0.264784
v -0.790870 1.030100 0.818552
v 0.584008 1.394580 0.466326
v 0.667572 0.211600 0.787390
v 1.111664 0.323430 0.516608
v -1.552334 1.917540 -0.076935
v -0.455674 0.484570 -0.770634
v -0.146438 1.004500 -0.483348
v -0.609392 0.750356 0.876364
v -0.056018 0.681374 -0.746300
v -1.818188 1.292240 0.800086
v 0.628948 1.248780 -0.143593
v 0.297286 0.922230 -0.475330
v -1.265868 2.039920 -0.024445
v 0.412438 1.387140 0.670556
v 0.257834 1.551460 0.545838
vn -0.976314 0.158955 -0.146780
vn -0.818227 0.518187 0.248972
vn -0.950068 -0.218328 -0.222945
vn -0.766904 -0.289941 0.572531
vn 0.072431 0.451406 0.889374
vn 0.278013 0.332157 0.901322
vn 0.201893 -0.623177 -0.755573
vn 0.236376 -0.026575 -0.971298
vn 0.729676 -0.494570 -0.472200
vn -0.418974 0.281020 -0.863417
vn 0.108455 0.184719 -0.976789
vn -0.915838 -0.264778 -0.301883
vn 0.285075 -0.948879 -0.135503
vn 0.087047 -0.979776 -0.180170
vn -0.020691 -0.999267 0.032223
vn -0.557862 0.447251 0.699111
vn 0.009941 0.966695 0.255739
vn -0.804015 -0.069313 -0.590556
vn 0.005454 0.126169 0.991994
vn 0.384982 -0.182626 0.904675
vn 0.348378 0.689646 -0.634839
vn 0.413561 0.799426 -0.435758
vn 0.323818 0.589516 -0.740008
vn 0.069031 -0.101184 -0.992470
vn 0.008796 -0.999872 0.013377
vn -0.034991 -0.999360 -0.007481
vn 0.649788 -0.043299 0.758881
vn -0.271985 -0.539765 -0.796667
vn 0.053661 0.992597 -0.108958
vn 0.652430 -0.023513 -0.757484
vn 0.401642 -0.875306 -0.269301
vn -0.908399 0.266026 -0.322554
vn -0.973345 -0.224241 0.048129
vn -0.947160 -0.290711 -0.135556
vn -0.462210 0.175050 -0.869321
vn -0.439798 -0.302036 -0.845785
vn -0.066403 -0.294854 -0.953232
vn -0.099864 0.418771 0.902584
vn 0.283907 0.938840 0.194875
vn -0.149609 0.987610 0.047378
vn 0.261570 0.945193 0.195425
vn -0.398672 0.087486 0.912911
vn -0.956596 -0.265731 0.119629
vn -0.736022 -0.675955 0.036825
vn 0.105628 -0.994348 -0.010744
vn 0.200539 0.123323 0.971893
vn 0.512576 -0.244905 0.822975
vn -0.029494 0.448386 0.893353
vn -0.185753 -0.680565 0.708750
vn 0.275067 0.293969 0.915380
vn 0.860381 0.366292 0.354365
vn 0.547588 -0.350149 0.759963
vn 0.201264 0.129355 -0.970958
vn 0.003431 -0.884938 0.465696
vn -0.286285 0.540392 0.791213
vn 0.381502 -0.256730 0.888001
vn 0.352152 -0.144452 0.924728
vn -0.746686 0.571594 -0.340207
vn -0.335375 -0.354800 -0.872720
vn -0.061533 0.285085 -0.956525
vn -0.480998 -0.690908 -0.539710
vn -0.046026 0.090487 -0.994833
vn -0.214433 0.343004 -0.914531
vn -0.083394 0.766691 0.636577
vn 0.258109 0.756164 0.601328
vn 0.102529 0.138724 -0.985009
vn 0.071094 -0.363652 -0.928818
vn -0.399717 0.119526 -0.908812
vn -0.219143 0.357258 -0.907933
vn -0.483209 -0.155338 0.861614
vn -0.357465 -0.931549 0.066592
vn 0.268053 0.114138 -0.956619
vn -0.502406 -0.130388 -0.854744
vn -0.381621 0.919200 0.097144
vn 0.467161 -0.065917 -0.881712
vn -0.187730 0.440813 -0.877748
vn -0.430766 -0.752416 0.498308
vn -0.564856 -0.639005 -0.522121
vn 0.916602 -0.347757 -0.197243
vn 0.822932 -0.564207 0.066734
vn -0.024323 0.897891 -0.439545
vn -0.694163 0.719733 -0.011043
vn 0.525440 0.235516 0.817585
vn -0.085980 0.397469 0.913579
vn 0.328862 0.788469 -0.519775
vn 0.999663 0.001466 -0.025929
vn 0.644194 0.701222 -0.305454
vn 0.485413 0.861252 -0.150399
vn -0.352024 -0.636299 -0.686443
vn -0.243120 0.603838 0.759126
vn -0.370027 -0.151465 0.916591
vn -0.016628 -0.968642 -0.247905
vn 0.186791 -0.944484 -0.270294
vn 0.550654 -0.385248 0.740516
vn -0.965649 -0.056781 -0.253570
vn 0.981958 0.077618 0.172434
vn 0.555062 0.560818 0.614320
vn 0.734644 -0.104620 0.670338
vn -0.627275 -0.126060 -0.768527
vn -0.774511 -0.085974 -0.626691
vn -0.934534 0.195151 0.297595
vn -0.794863 0.201478 0.572363
vn -0.993947 0.104586 0.033623
vn -0.655350 -0.644442 0.393967
vn -0.217704 -0.129281 -0.967415
vn -0.938117 0.262309 -0.226121
vn 0.666395 0.451301 -0.593502
vn 0.225910 0.972992 -0.047444
vn -0.347324 0.618036 -0.705264
vn -0.125353 0.177474 -0.976109
vn 0.289310 0.637514 -0.714056
vn 0.634425 -0.203032 0.745843
vn 0.407208 -0.155500 0.900001
vn 0.998597 0.020958 -0.048621
vn -0.024195 0.205237 0.978413
vn -0.996662 0.071669 -0.039091
vn 0.810286 -0.428560 -0.399716
vn 0.377040 0.201491 -0.904015
vn 0.070148 0.757296 -0.649293
vn 0.020528 0.687637 -0.725764
vn 0.842481 -0.021064 -0.538315
vn 0.219813 0.231834 -0.947594
vn -0.304727 -0.951626 0.039362
vn 0.042093 0.810983 0.583554
vn -0.994601 0.089504 0.052509
vn -0.176726 0.141799 0.973992
vn -0.948943 0.094119 0.301081
vn -0.647245 -0.724558 0.236835
vn 0.826140 0.454714 0.332759
vn 0.177286 -0.135676 0.974762
vn 0.396338 0.896213 -0.199294
vn 0.447797 0.891066 0.074022
vn -0.013310 0.071273 0.997368
vn -0.050055 0.151005 0.987265
vn 0.777501 0.092679 0.622015
vn 0.564889 0.808080 0.167054
s 1
g Mesh7
f 47//1 46//2 97//3
f 129//4 17//5 96//6
f 44//7 109//8 86//9
f 23//10 117//11 60//12
f 37//13 55//14 10//15
f 51//16 75//17 6//18
f 129//4 116//19 1//20
f 133//21 29//22 87//23
f 117//11 23//10 41//24
f 101//25 37//13 5//26
f 69//27 33//28 62//29
f 117//11 79//30 40//31
f 19//32 95//33 11//34
f 19//32 126//35 65//36
f 25//37 62//29 33//28
f 116//19 129//4 122//38
f 105//39 108//40 45//41
f 116//19 112//42 30//43
f 3//44 114//45 118//46
f 35//47 43//48 99//49
f 31//50 16//51 93//52
f 25//37 93//52 110//53
f 60//12 40//31 115//54
f 20//55 124//56 111//57
f 73//58 121//59 23//10
f 5//26 3//44 101//25
f 37//13 10//15 82//60
f 121//59 63//61 70//62
f 115//54 37//13 74//63
f 42//64 108//40 80//65
f 127//66 61//67 117//11
f 80//65 122//38 42//64
f 94//68 22//69 70//62
f 35//47 75//17 43//48
f 1//20 116//19 38//70
f 40//31 15//71 115//54
f 134//72 77//73 34//74
f 67//75 127//66 130//76
f 63//61 2//77 49//78
f 109//8 24//79 107//80
f 133//21 128//81 29//22
f 25//37 110//53 134//72
f 63//61 73//58 7//82
f 44//7 114//45 3//44
f 24//79 125//83 107//80
f 86//9 91//84 111//57
f 105//39 45//41 81//85
f 90//86 132//87 83//88
f 27//89 25//37 33//28
f 25//37 27//89 93//52
f 59//90 118//46 98//91
f 8//92 89//93 55//14
f 27//89 36//94 93//52
f 34//74 52//95 97//3
f 118//46 89//93 8//92
f 58//96 135//97 53//98
f 88//99 119//100 41//24
f 15//71 3//44 5//26
f 126//35 46//2 47//1
f 111//57 114//45 86//9
f 37//13 115//54 5//26
f 131//101 95//33 71//102
f 50//103 49//78 104//104
f 84//105 126//35 110//53
f 18//106 94//68 50//103
f 90//86 76//107 132//87
f 18//106 50//103 71//102
f 133//21 130//76 128//81
f 31//50 56//108 75//17
f 84//105 102//109 94//68
f 95//33 65//36 18//106
f 27//89 31//50 36//94
f 29//22 128//81 72//110
f 21//111 110//53 93//52
f 124//56 26//112 92//113
f 125//83 24//79 12//114
f 98//91 54//115 129//4
f 126//35 6//18 46//2
f 30//43 2//77 63//61
f 75//17 35//47 16//51
f 30//43 63//61 13//116
f 79//30 64//117 32//118
f 44//7 79//30 32//118
f 39//119 57//120 81//85
f 113//121 12//114 103//122
f 41//24 119//100 117//11
f 11//34 43//48 51//16
f 50//103 94//68 49//78
f 7//82 82//60 68//123
f 16//51 31//50 75//17
f 53//98 26//112 124//56
f 12//114 24//79 103//122
f 101//25 55//14 37//13
f 118//46 114//45 111//57
f 54//115 92//113 26//112
f 39//119 29//22 57//120
f 9//124 28//125 13//116
f 125//83 12//114 20//55
f 42//64 122//38 96//6
f 96//6 135//97 42//64
f 15//71 40//31 44//7
f 13//116 63//61 7//82
f 67//75 130//76 87//23
f 127//66 117//11 119//100
f 78//126 66//127 100//128
f 49//78 2//77 104//104
f 121//59 41//24 23//10
f 106//129 21//111 93//52
f 134//72 62//29 25//37
f 58//96 53//98 20//55
f 47//1 52//95 110//53
f 4//130 9//124 10//15
f 85//131 29//22 39//119
f 30//43 38//70 116//19
f 73//58 23//10 82//60
f 136//132 42//64 135//97
f 78//126 71//102 66//127
f 98//91 1//20 59//90
f 126//35 19//32 6//18
f 8//92 3//44 118//46
f 63//61 49//78 70//62
f 121//59 73//58 63//61
f 134//72 110//53 77//73
f 106//129 16//51 35//47
f 78//126 48//133 99//49
f 76//107 90//86 113//121
f 28//125 9//124 38//70
f 5//26 115//54 15//71
f 38//70 4//130 55//14
f 99//49 43//48 11//34
f 125//83 20//55 91//84
f 53//98 124//56 20//55
f 15//71 44//7 3//44
f 109//8 32//118 103//122
f 7//82 68//123 10//15
f 96//6 122//38 129//4
f 87//23 132//87 76//107
f 86//9 114//45 44//7
f 103//122 24//79 109//8
f 57//120 22//69 102//109
f 116//19 48//133 112//42
f 79//30 117//11 61//67
f 72//110 127//66 119//100
f 81//85 45//41 39//119
f 118//46 92//113 98//91
f 59//90 55//14 120//134
f 117//11 40//31 60//12
f 61//67 67//75 79//30
f 128//81 130//76 72//110
f 17//5 14//135 96//6
f 118//46 111//57 92//113
f 82//60 7//82 73//58
f 67//75 61//67 127//66
f 88//99 72//110 119//100
f 82//60 74//63 37//13
f 66//127 104//104 100//128
f 64//117 76//107 113//121
f 65//36 95//33 19//32
f 136//132 135//97 123//136
f 105//39 80//65 108//40
f 38//70 55//14 59//90
f 81//85 106//129 105//39
f 94//68 102//109 22//69
f 26//112 14//135 54//115
f 126//35 47//1 110//53
f 107//80 91//84 86//9
f 21//111 102//109 110//53
f 42//64 136//132 108//40
f 94//68 70//62 49//78
f 125//83 91//84 107//80
f 79//30 67//75 64//117
f 84//105 94//68 18//106
f 51//16 43//48 75//17
f 75//17 56//108 6//18
f 18//106 71//102 95//33
f 8//92 101//25 3//44
f 103//122 32//118 113//121
f 44//7 40//31 79//30
f 111//57 124//56 92//113
f 45//41 85//131 39//119
f 2//77 30//43 100//128
f 52//95 77//73 110//53
f 6//18 56//108 46//2
f 107//80 86//9 109//8
f 34//74 97//3 56//108
f 31//50 27//89 69//27
f 99//49 131//101 78//126
f 56//108 97//3 46//2
f 95//33 131//101 11//34
f 78//126 131//101 71//102
f 135//97 58//96 123//136
f 48//133 35//47 99//49
f 115//54 74//63 60//12
f 80//65 106//129 48//133
f 32//118 109//8 44//7
f 8//92 55//14 101//25
f 65//36 126//35 84//105
f 76//107 64//117 87//23
f 34//74 77//73 52//95
f 14//135 135//97 96//6
f 87//23 64//117 67//75
f 120//134 89//93 118//46
f 9//124 13//116 10//15
f 48//133 122//38 80//65
f 12//114 113//121 90//86
f 59//90 1//20 38//70
f 100//128 112//42 78//126
f 85//131 83//88 29//22
f 70//62 88//99 121//59
f 64//117 113//121 32//118
f 54//115 17//5 129//4
f 136//132 83//88 85//131
f 65//36 84//105 18//106
f 33//28 69//27 27//89
f 1//20 98//91 129//4
f 134//72 34//74 56//108
f 22//69 72//110 88//99
f 88//99 70//62 22//69
f 11//34 51//16 6//18
f 136//132 45//41 108//40
f 10//15 55//14 4//130
f 20//55 12//114 58//96
f 29//22 72//110 57//120
f 92//113 54//115 98//91
f 87//23 130//76 133//21
f 10//15 13//116 7//82
f 9//124 4//130 38//70
f 120//134 55//14 89//93
f 74//63 23//10 60//12
f 81//85 57//120 21//111
f 57//120 102//109 21//111
f 62//29 56//108 31//50
f 48//133 106//129 35//47
f 68//123 82//60 10//15
f 121//59 88//99 41//24
f 11//34 131//101 99//49
f 29//22 132//87 87//23
f 122//38 48//133 116//19
f 66//127 50//103 104//104
f 123//136 58//96 90//86
f 82//60 23//10 74//63
f 52//95 47//1 97//3
f 100//128 30//43 112//42
f 62//29 31//50 69//27
f 66//127 71//102 50//103
f 90//86 83//88 123//136
f 105//39 106//129 80//65
f 130//76 127//66 72//110
f 21//111 106//129 81//85
f 102//109 84//105 110//53
f 72//110 22//69 57//120
f 16//51 106//129 93//52
f 38//70 30//43 28//125
f 56//108 62//29 134//72
f 91//84 20//55 111//57
f 14//135 17//5 54//115
f 14//135 53//98 135//97
f 58//96 12//114 90//86
f 11//34 6//18 19//32
f 53//98 14//135 26//112
f 48//133 78//126 112//42
f 104//104 2//77 100//128
f 45//41 136//132 85//131
f 120//134 118//46 59//90
f 31//50 93//52 36//94
f 30//43 13//116 28//125
f 83//88 136//132 123//136
f 132//87 29//22 83//88
